<mxfile host="app.diagrams.net" modified="2023-07-11T13:27:45.235Z" agent="Mozilla/5.0 (Windows NT 10.0; Win64; x64) AppleWebKit/537.36 (KHTML, like Gecko) Chrome/114.0.0.0 Safari/537.36 Edg/114.0.1823.58" version="21.6.1" etag="0Rpix9uXUnM21gKN3IjC" type="github">
  <diagram name="第 1 页" id="D--T-QYuwLV0SUV8Ewp7">
    <mxGraphModel>
      <root>
        <mxCell id="0" />
        <mxCell id="1" parent="0" />
      </root>
    </mxGraphModel>
  </diagram>
</mxfile>
